<?xml version="1.0" encoding="UTF-8"?>
<svg width="64" height="64" viewBox="0 0 64 64" xmlns="http://www.w3.org/2000/svg" role="img" aria-label="Chatify favicon - blue">
  <defs>
    <linearGradient id="blueGrad" x1="0%" x2="100%" y1="0%" y2="100%">
      <stop offset="0%" stop-color="#60a5fa"/>
      <stop offset="50%" stop-color="#3b82f6"/>
      <stop offset="100%" stop-color="#1e40af"/>
    </linearGradient>
    <filter id="shadow" x="-50%" y="-50%" width="200%" height="200%">
      <feDropShadow dx="0" dy="2" stdDeviation="3" flood-color="#000" flood-opacity="0.22"/>
    </filter>
  </defs>

  <!-- rounded square blue gradient background -->
  <rect width="64" height="64" rx="12" fill="url(#blueGrad)" filter="url(#shadow)"/>

  <!-- white chat bubble with subtle rounded tail -->
  <g transform="translate(8,10) scale(0.85)" fill="#ffffff">
    <path d="M26 6C15.5066 6 7.5 13.5066 7.5 22C7.5 26.2 9.4 29.9 12.75 32.65V36.5C12.75 37.1667 13.3333 37.6667 14 37.6667C14.3333 37.6667 14.65 37.55 14.9 37.33L18.9 34.06C20.9 34.86 23.1 35.25 25.5 35.25C35.9934 35.25 44 27.7434 44 19.25C44 10.7566 35.9934 6 26 6Z"/>
  </g>

  <!-- blue circular badge with white 'C' for contrast -->
  <g transform="translate(18,20)">
    <circle cx="14" cy="6" r="6" fill="#ffffff" opacity="0.06" />
    <text x="14" y="10.5" text-anchor="middle" font-family="Arial, Helvetica, sans-serif" font-size="10" font-weight="700" fill="#e0f2fe">C</text>
  </g>
</svg>
